<svg xmlns="http://www.w3.org/2000/svg" viewBox="0 0 92.46 58.73"><defs><style>.cls-1{fill:#fff;}.cls-2{fill:#fbc041;}</style></defs><g id="Layer_2" data-name="Layer 2"><g id="Layer_1-2" data-name="Layer 1"><path class="cls-1" d="M81.26,48.55v.11c1.6-.08,3.21-.07,4.8-.24,4.88-.52,7.12-3.56,6.2-8.39s-4-7.89-7.6-10.69c-3.25-2.51-7.09-3.26-11-3.59-5.7-.49-9.36-3.41-11.27-8.78a58.82,58.82,0,0,0-3.19-7.28,15.32,15.32,0,0,0-9.35-7.91,37.53,37.53,0,0,0-25.49,1,10.4,10.4,0,0,0-6.22,6.09,39.78,39.78,0,0,0-2.23,7.44c-.84,4.75-3.15,7.82-8,9.26a9.84,9.84,0,0,0-6.82,7.54A40.74,40.74,0,0,0,0,40.42c-.17,3.63,1.66,6,5.17,6.95a19.65,19.65,0,0,0,4.57.68,1.8,1.8,0,0,1,1.94,1.51,12.91,12.91,0,0,0,8.48,8.65c5.91,2,12-1.77,13.83-8.48a1.78,1.78,0,0,1,2.13-1.6c4.81.08,9.62.13,14.42,0,1.73,0,2.56.34,3.16,2.15C55.25,55,60,58.54,64.46,58.68c4.93.15,8.24-2.35,10.4-6.6.62-1.22.87-3,1.84-3.57s2.79,0,4.22,0Z"/><path d="M81.26,48.55l-.34,0c-1.43-.06-3.14-.61-4.22,0s-1.22,2.35-1.84,3.57c-2.16,4.25-5.47,6.75-10.4,6.6C60,58.54,55.25,55,53.71,50.3c-.6-1.81-1.43-2.19-3.16-2.15-4.8.11-9.61.06-14.42,0A1.78,1.78,0,0,0,34,49.73c-1.78,6.71-7.92,10.44-13.83,8.48a12.91,12.91,0,0,1-8.48-8.65,1.8,1.8,0,0,0-1.94-1.51,19.65,19.65,0,0,1-4.57-.68C1.67,46.4-.16,44.05,0,40.42a40.74,40.74,0,0,1,1.08-7.35,9.84,9.84,0,0,1,6.82-7.54c4.82-1.44,7.13-4.51,8-9.26a39.78,39.78,0,0,1,2.23-7.44,10.4,10.4,0,0,1,6.22-6.09,37.53,37.53,0,0,1,25.49-1,15.32,15.32,0,0,1,9.35,7.91A58.82,58.82,0,0,1,62.36,17c1.91,5.37,5.57,8.29,11.27,8.78,3.94.33,7.78,1.08,11,3.59,3.62,2.8,6.71,6,7.6,10.69s-1.32,7.87-6.2,8.39c-1.59.17-3.2.16-4.8.24ZM52.74,46.28c2.35-7.17,5.58-10.45,10.81-10.47,7,0,11,3.86,12.58,10.27,3.68,0,7.28.25,10.83-.08,3-.28,4.23-3.14,3-6-5.93.65-8.44-2.65-6.83-9.23a24.16,24.16,0,0,0-3.59-1.52c-2.94-.76-5.91-1.41-8.89-2a11.65,11.65,0,0,1-9.29-7.61c-.81-2.12-1.65-4.23-2.41-6.36-2-5.7-6.21-9-11.95-10.42A35.3,35.3,0,0,0,26.24,4.14c-4.14,1.46-6.82,4.15-7.77,8.5-.56,2.58-1.17,5.16-1.81,7.73a7.39,7.39,0,0,1-4.77,5.34c-1.12.42-2.2,1-3.43,1.5,2.23,2.53,2.11,5.07.51,7.62A7,7,0,0,1,2,38.28c-.65,4.83,1.37,7.45,5.91,7.89.61.06,1.22,0,1.82.08,1.06.1,1.55-.21,1.73-1.39a10.52,10.52,0,0,1,1.26-3.56,11.19,11.19,0,0,1,11.44-5.4c4.64.76,8.87,4.49,9.74,8.84.27,1.31.78,1.6,2,1.55,1.88-.08,3.76,0,5.64,0ZM64.89,56.74c4.86,0,9.2-4.48,9.27-9.64.07-4.86-4.94-9.62-10.16-9.65-4.72,0-9.24,4.73-9.21,9.72C54.81,52,59.79,56.71,64.89,56.74Zm-41.84,0c4.92.08,9.32-4.48,9.37-9.7,0-4.8-4.86-9.49-10-9.59-4.67-.1-9.17,4.5-9.25,9.45S17.87,56.66,23.05,56.74ZM2.24,36.17c3.27.71,6.72-2.69,6-5.71A4.39,4.39,0,0,0,7.47,29c-.48-.69-1-.71-1.63-.09A14.79,14.79,0,0,0,2.24,36.17Zm87.45,1.65-4.51-5.71a3.64,3.64,0,0,0,0,4.85C86.32,38.41,87.52,38.73,89.69,37.82Z"/><path class="cls-2" d="M52.74,46.28H41.53c-1.88,0-3.76-.07-5.64,0-1.18.05-1.69-.24-2-1.55-.87-4.35-5.1-8.08-9.74-8.84a11.19,11.19,0,0,0-11.44,5.4,10.52,10.52,0,0,0-1.26,3.56c-.18,1.18-.67,1.49-1.73,1.39-.6-.06-1.21,0-1.82-.08C3.4,45.73,1.38,43.11,2,38.28A7,7,0,0,0,9,34.83c1.6-2.55,1.72-5.09-.51-7.62,1.23-.54,2.31-1.08,3.43-1.5a7.39,7.39,0,0,0,4.77-5.34c.64-2.57,1.25-5.15,1.81-7.73,1-4.35,3.63-7,7.77-8.5A35.3,35.3,0,0,1,47,2.9c5.74,1.43,9.9,4.72,11.95,10.42.76,2.13,1.6,4.24,2.41,6.36a11.65,11.65,0,0,0,9.29,7.61c3,.58,6,1.23,8.89,2a24.16,24.16,0,0,1,3.59,1.52c-1.61,6.58.9,9.88,6.83,9.23,1.28,2.83.06,5.69-3,6-3.55.33-7.15.08-10.83.08-1.63-6.41-5.61-10.29-12.58-10.27C58.32,35.83,55.09,39.11,52.74,46.28ZM38.19,15.2h-.3c0,3.2,0,6.41,0,9.61,0,1,.25,1.69,1.46,1.68,4.8,0,9.61.1,14.41,0,3.91-.12,5.34-2,4.11-5.77A55.1,55.1,0,0,0,54,12.46c-2.95-5.64-8-7.77-14-8.13-1.45-.09-1.85.42-1.82,1.76C38.23,9.13,38.19,12.16,38.19,15.2Zm-3,.55h.37c0-3.09,0-6.18,0-9.27,0-1.17-.38-1.83-1.65-1.6-8.51,1.54-15.3,6.83-15.18,16.89,0,3.36,1,4.62,4.33,4.83,3.63.22,7.28,0,10.92,0,1.07,0,1.2-.76,1.2-1.61Zm7.59,19.46c1.11-.07,1.95-.05,2.77-.19a2.34,2.34,0,0,0,2.19-2.47,2.15,2.15,0,0,0-2-2.44,32.5,32.5,0,0,0-5.58.08,2.12,2.12,0,0,0-1.84,2.4A2.31,2.31,0,0,0,40.22,35,22.62,22.62,0,0,0,42.74,35.21Z"/><path d="M64.89,56.74c-5.1,0-10.08-4.76-10.1-9.57,0-5,4.49-9.75,9.21-9.72,5.22,0,10.23,4.79,10.16,9.65C74.09,52.26,69.75,56.77,64.89,56.74Zm-.56-17.07a7.22,7.22,0,0,0-7.39,6.94,8.3,8.3,0,0,0,7.75,8A7.38,7.38,0,0,0,72,47.19,7.71,7.71,0,0,0,64.33,39.67Z"/><path d="M23.05,56.74c-5.18-.08-10-4.86-9.92-9.84s4.58-9.55,9.25-9.45c5.18.1,10.09,4.79,10,9.59C32.37,52.26,28,56.82,23.05,56.74Zm0-2.13a7.46,7.46,0,0,0,7.24-7.54c0-3.92-3.65-7.41-7.81-7.41a7.21,7.21,0,0,0-7.26,6.9A8.2,8.2,0,0,0,23.07,54.61Z"/><path class="cls-1" d="M2.24,36.17a14.79,14.79,0,0,1,3.6-7.23c.59-.62,1.15-.6,1.63.09a4.39,4.39,0,0,1,.76,1.43C9,33.48,5.51,36.88,2.24,36.17Z"/><path class="cls-1" d="M89.69,37.82c-2.17.91-3.37.59-4.54-.86a3.64,3.64,0,0,1,0-4.85Z"/><path d="M38.19,15.19s0-8.35,0-9.1c0-1.34.37-1.85,1.82-1.76,6.07.36,11.09,2.49,14,8.13a55.1,55.1,0,0,1,3.82,8.22c1.23,3.76-.2,5.65-4.11,5.77-4.8.14-9.61,0-14.41,0-1.21,0-1.47-.64-1.46-1.68,0-1.66,0-3.32,0-5a31,31,0,0,1,0-4.62Zm1.76-9V24.68c4.69,0,9.38.13,14.06-.05,2.34-.09,3-1.47,2.07-3.69-1.19-2.73-2.47-5.43-3.91-8C49.62,8.27,45.33,6.61,40,6.23Z"/><path d="M35.26,15.84c-.31.32-.11,1.34-.11,1.74V25c0,.85-.13,1.6-1.2,1.61-3.64,0-7.29.19-10.92,0-3.31-.21-4.29-1.47-4.33-4.83C18.58,11.71,25.37,6.42,33.88,4.88c1.27-.23,1.66.43,1.65,1.6,0,1.62,0,3.25,0,4.87,0,.83,0,1.66,0,2.5,0,.39,0,.79,0,1.18S35.54,15.54,35.26,15.84ZM33.69,7a4.91,4.91,0,0,0-.85-.05C25.3,8.14,20.67,13.43,20.5,21c-.06,2.72.91,3.75,3.59,3.78s5.09-.05,7.62,0c1.27,0,1.72-.3,1.73-1.65,0-4.75.16-9.49.25-14.24C33.7,8.31,33.69,7.66,33.69,7Z"/><path d="M42.74,35.21A22.62,22.62,0,0,1,40.22,35a2.31,2.31,0,0,1-1.93-2.38,2.12,2.12,0,0,1,1.84-2.4,32.5,32.5,0,0,1,5.58-.08,2.15,2.15,0,0,1,2,2.44A2.34,2.34,0,0,1,45.51,35C44.69,35.16,43.85,35.14,42.74,35.21ZM43,33.5v-.14a10.65,10.65,0,0,0,2,0c.35-.06.63-.48.94-.74-.28-.28-.55-.79-.85-.81a34.72,34.72,0,0,0-4.08,0,1,1,0,0,0-.71.72,1,1,0,0,0,.64.77A14.36,14.36,0,0,0,43,33.5Z"/><path d="M64.33,39.67A7.71,7.71,0,0,1,72,47.19a7.38,7.38,0,0,1-7.31,7.43,8.3,8.3,0,0,1-7.75-8A7.22,7.22,0,0,1,64.33,39.67Zm6.85,7.42c0-3.36-3.32-6.59-7-6.66C61,40.36,57.86,43.5,57.78,47s3.32,6.79,7,6.82A6.69,6.69,0,0,0,71.18,47.09Z"/><path d="M23.07,54.61a8.2,8.2,0,0,1-7.83-8,7.21,7.21,0,0,1,7.26-6.9c4.16,0,7.84,3.49,7.81,7.41A7.46,7.46,0,0,1,23.07,54.61Zm-.66-14.19c-3.24,0-6.28,3.14-6.36,6.61s3.31,6.69,6.88,6.75A6.72,6.72,0,0,0,29.46,47C29.45,43.65,26,40.46,22.41,40.42Z"/><path class="cls-1" d="M40,6.23c5.38.38,9.67,2,12.22,6.67,1.44,2.61,2.72,5.31,3.91,8,1,2.22.27,3.6-2.07,3.69-4.68.18-9.37.05-14.06.05Z"/><path class="cls-1" d="M33.69,7c0,.68,0,1.33,0,2-.09,4.75-.24,9.49-.25,14.24,0,1.35-.46,1.69-1.73,1.65-2.53-.09-5.08,0-7.62,0S20.44,23.74,20.5,21c.17-7.59,4.8-12.88,12.34-14.09A4.91,4.91,0,0,1,33.69,7Z"/><path class="cls-1" d="M43,33.5a14.36,14.36,0,0,1-2.1-.22,1,1,0,0,1-.64-.77,1,1,0,0,1,.71-.72,34.72,34.72,0,0,1,4.08,0c.3,0,.57.53.85.81-.31.26-.59.68-.94.74a10.65,10.65,0,0,1-2,0Z"/><path class="cls-1" d="M71.18,47.09a6.69,6.69,0,0,1-6.43,6.69c-3.65,0-7-3.36-7-6.82s3.19-6.6,6.44-6.53C67.86,40.5,71.23,43.73,71.18,47.09Zm-3.79.07a2.89,2.89,0,0,0-3-2.9,2.77,2.77,0,0,0-2.83,2.83,2.9,2.9,0,0,0,3,2.92A2.78,2.78,0,0,0,67.39,47.16Z"/><path class="cls-1" d="M22.41,40.42c3.62,0,7,3.23,7.05,6.59a6.72,6.72,0,0,1-6.53,6.77c-3.57-.06-7-3.39-6.88-6.75S19.17,40.4,22.41,40.42Zm3.23,6.74a2.92,2.92,0,0,0-2.93-2.91A2.81,2.81,0,0,0,19.82,47a2.93,2.93,0,0,0,2.85,3A2.82,2.82,0,0,0,25.64,47.16Z"/><path d="M67.39,47.16A2.78,2.78,0,0,1,64.56,50a2.9,2.9,0,0,1-3-2.92,2.77,2.77,0,0,1,2.83-2.83A2.89,2.89,0,0,1,67.39,47.16ZM66,47c-.77-.41-1.23-.82-1.71-.85-.26,0-.87.77-.79.92a2,2,0,0,0,1.13,1.07C64.91,48.2,65.35,47.57,66,47Z"/><path d="M25.64,47.16a2.82,2.82,0,0,1-3,2.85,2.93,2.93,0,0,1-2.85-3,2.81,2.81,0,0,1,2.89-2.76A2.92,2.92,0,0,1,25.64,47.16ZM24.24,47c-.75-.43-1.19-.86-1.67-.9-.26,0-.9.74-.82.9a2.13,2.13,0,0,0,1.09,1.12C23.1,48.24,23.57,47.6,24.24,47Z"/><path class="cls-1" d="M66,47c-.65.57-1.09,1.2-1.37,1.14a2,2,0,0,1-1.13-1.07c-.08-.15.53-.94.79-.92C64.77,46.18,65.23,46.59,66,47Z"/><path class="cls-1" d="M24.24,47c-.67.56-1.14,1.2-1.4,1.12A2.13,2.13,0,0,1,21.75,47c-.08-.16.56-.92.82-.9C23.05,46.18,23.49,46.61,24.24,47Z"/></g></g></svg>