<svg xmlns="http://www.w3.org/2000/svg" viewBox="0 0 72.31 72.15"><defs><style>.cls-1{fill:#fbc041;}</style></defs><g id="Layer_2" data-name="Layer 2"><g id="Layer_1-2" data-name="Layer 1"><path d="M72.22,21.09c-.4-1.36-2.42-2.36-4.06-3.17-.54-.27-1-.51-1.39-.73-2.9-1.79-5.8-3.58-8.71-5.34-4.29-2.6-8.73-5.08-13-7.48L40.4,1.77l-.67-.39A7.34,7.34,0,0,0,36,0a4.31,4.31,0,0,0-.94.11,29.24,29.24,0,0,0-7.43,3.42c-.89.51-1.76,1-2.6,1.45C18.57,8.36,11.6,12.37,3.75,17.22l-.53.32c-1.43.84-3.38,2-3.21,3.81.21,2.29,3.15,2.47,4.42,2.54l1.22,0v.27c-.07,1.39-.15,3,1.36,3.62,0,3.07.07,6.14.13,9.21.06,3.69.13,7.5.11,11.14l-.17,0c-1.22.46-1.37,1.33-1.44,2.42-.13,2.31-.08,4.67,0,7,0,.68,0,1.37,0,2.05l-.28.06c-2.43.65-2.35,2.58-2.27,4.63l0,.36a5.42,5.42,0,0,0-1,.31A2.61,2.61,0,0,0,.77,66.64,5.86,5.86,0,0,0,1,70.91c.61,1,2,1.11,3.11,1.16l.45,0c.83,0,1.66.06,2.5.06,1.22,0,2.45,0,3.68-.07C11.85,72,12.93,72,14,72c2.08,0,4.16,0,6.25-.09,2.61,0,5.23-.1,7.84-.1,3,0,5.67.07,8.07.21l9.21,0c3.74,0,7.48,0,11.21,0s7.33,0,11-.07a4.3,4.3,0,0,0,3.61-1.56,4.18,4.18,0,0,0,.28-3.86,2.94,2.94,0,0,0-2.25-1.92c0-.26,0-.52,0-.79,0-1.54,0-3.13-1.38-3.94a4.4,4.4,0,0,0-1.14-.4l0-2.48c0-2.15.06-4.37,0-6.55A2.63,2.63,0,0,0,65.29,48c-.13-4.81-.22-9.61-.31-14.41l-.11-6A2.72,2.72,0,0,0,65.94,27a3.83,3.83,0,0,0,.58-2.72c0-.16,0-.31,0-.45.52,0,1,0,1.57,0a8.75,8.75,0,0,0,2.41-.26,2.6,2.6,0,0,0,1.63-1.09A1.78,1.78,0,0,0,72.22,21.09Zm-4,.88a5.05,5.05,0,0,1-1.89.28c-.68,0-1.39-.06-2.06-.12s-1.17-.1-1.66-.1c-3.31,0-6.61-.08-9.92-.16s-6.83-.15-10.24-.15H41.31c-5.81,0-11.72.09-17.43.17l-19.44.29H4.2c-.79,0-1.68-.09-1.87-.53s.23-1.18,1.18-2.3a4.07,4.07,0,0,1,1.13-.7l.53-.28L9,16.1c2.66-1.59,5.33-3.18,8-4.72,5.08-2.92,10.11-5.59,15-7.93q.51-.26,1.05-.57a7.18,7.18,0,0,1,3.22-1.19,2.24,2.24,0,0,1,.52.05A7.51,7.51,0,0,1,39,2.9c.32.21.64.42.94.59,1,.58,2.1,1.13,3.15,1.68,1.3.67,2.65,1.38,3.94,2.12,5.25,3.05,10.42,6.2,14.79,8.88l5.75,3.54.24.15c.72.44,1.47.9,1.43,1.3S68.88,21.7,68.19,22Zm-.71,42.48H67c-.83,0-1.66.07-2.47.13s-1.32.11-1.85.11h-.26c-2-.07-4.14-.11-6.57-.11-2.62,0-5.23,0-7.85.08-2.17,0-4.35.07-6.52.08h-1c-3.06,0-6.11-.06-9.17-.12s-6.11-.12-9.17-.12H20.62l-4.42,0c-1.73,0-3.45,0-5.18-.05L9.51,64.4c-.87,0-1.83-.07-2.78-.07-.72,0-1.35,0-1.91.07,0-1.89.32-2.76,2.28-3.15a10.27,10.27,0,0,1,2.13-.17l1.17,0,1.11,0H12c1.21,0,2.42,0,3.64,0,2.1,0,4.2,0,6.31.08l3.4.07c5.87.12,11.94.24,17.92.28h.86c2.25,0,4.5-.05,6.75-.11,1.93,0,3.85-.09,5.78-.1H57c.8,0,1.59,0,2.39,0l2.38,0H62c.4,0,.87-.05,1.37-.09A16.14,16.14,0,0,1,65,61.14a3.89,3.89,0,0,1,1.13.13c1.32.4,1.32,1.72,1.32,3ZM45.65,70.39c-3.17,0-6.33-.07-9.49-.07-1.69-.11-3.54-.15-5.64-.15-1.93,0-3.85,0-5.78.07s-3.86.08-5.79.08H16.79c-1.28,0-2.55,0-3.83,0-1.89,0-3.77,0-5.65.09l-1,0c-.43,0-.84,0-1.24,0-1.42,0-2.42-.35-2.64-2.09-.18-1.39-.21-1.56,1.28-1.89a19.3,19.3,0,0,1,3.69-.29l.9,0c.6,0,1.19,0,1.79,0,1.18,0,2.35,0,3.52,0s2.35,0,3.53,0h3.19c2.64,0,5.28.06,7.92.12s5.28.12,7.92.12h2.1c6.13-.09,12.66-.13,20.55-.14l7.2,0h1.42a2.89,2.89,0,0,1,2.13.55,1.89,1.89,0,0,1,.34,1.52c-.16,1.65-1.16,1.8-2.78,1.87-3.39.13-7,.19-11.28.19C52.46,70.47,49.06,70.43,45.65,70.39ZM7.3,52.1c-.06-.94-.12-1.92.71-2.36a2.25,2.25,0,0,1,.93-.13l.77,0,.62,0h.08c1,0,2-.08,3-.1a11.36,11.36,0,0,0,1.32-.13,19.38,19.38,0,0,1,2.11-.18,2.66,2.66,0,0,1,1,.15c.89.38.81,1.69.74,2.73,0,.26,0,.5,0,.71q0,2.43,0,4.86v1.7l-1.77,0c-.89,0-1.87,0-2.88-.09-1.18-.06-2.42-.11-3.63-.11a27.73,27.73,0,0,0-2.92.14c0-2.09,0-4.17,0-6.26v-.26Q7.33,52.46,7.3,52.1ZM20.09,24.24c0-.19,0-.38,0-.56l8.79-.08c0,.17,0,.35,0,.54-.07,1.41-.15,3,1.36,3.63,0,3.07.07,6.14.13,9.21.07,3.68.13,7.49.12,11.13l-.18,0c-1.22.46-1.37,1.33-1.43,2.42-.14,2.31-.09,4.68,0,7,0,.67,0,1.33,0,2-2.87-.06-5.73-.1-8.6-.14,0-.78,0-1.56,0-2.34,0-2.15.06-4.37-.05-6.55A2.64,2.64,0,0,0,18.87,48c-.14-4.82-.23-9.63-.32-14.44l-.11-6A2.58,2.58,0,0,0,19.51,27,3.73,3.73,0,0,0,20.09,24.24Zm23.22,0c0-.24,0-.47,0-.69,2.83,0,5.66,0,8.49.07h.3l0,.52c-.06,1.4-.14,3,1.37,3.62,0,3.07.07,6.14.12,9.21.07,3.69.14,7.5.12,11.14l-.18,0c-1.22.46-1.36,1.33-1.43,2.42-.14,2.31-.09,4.68,0,7,0,.68,0,1.36,0,2.1l-1.17,0c-2.24,0-4.49.09-6.74.09h-.7q0-1.37,0-2.73c0-2.15.06-4.36-.05-6.53A2.65,2.65,0,0,0,42.08,48c-.13-4.78-.22-9.56-.31-14.34l-.12-6.08A2.58,2.58,0,0,0,42.72,27,3.78,3.78,0,0,0,43.31,24.24ZM30.51,52.1c-.06-.94-.12-1.92.72-2.36a2.2,2.2,0,0,1,.92-.13l.78,0,.61,0h.08c1,0,2-.08,3-.1a11.43,11.43,0,0,0,1.31-.13A19.6,19.6,0,0,1,40,49.24a2.75,2.75,0,0,1,1,.15c.88.38.8,1.69.73,2.73,0,.26,0,.5,0,.71q0,2.54,0,5.07v1.86c-3.73,0-7.46-.1-11.19-.18,0-2,0-4,0-6v-.81Q30.54,52.46,30.51,52.1Zm9.85-4.42c-.47,0-1,0-1.49.08s-1,.07-1.48.07h-.21c-.51,0-1.07,0-1.65-.05s-1.32,0-2,0c-.47,0-.93,0-1.37,0,0-3.62-.06-7.29-.12-10.84-.06-2.94-.11-5.88-.13-8.82.4,0,.81,0,1.22,0,.93,0,1.92-.07,2.79-.13l1.62-.1h.64c.52,0,1.14,0,1.76-.06l.11,5.59c.09,4.74.18,9.48.31,14.22ZM41,25.9a5.39,5.39,0,0,1-2.35.37l-1.07,0H32.78A2.52,2.52,0,0,1,31,25.79c-.37-.38-.4-1.07-.39-2.21,2.92,0,5.83,0,8.75,0h2.27v.38C41.59,24.71,41.59,25.51,41,25.9ZM8.71,28.13c.39,0,.8,0,1.22,0,.93,0,1.92-.07,2.79-.13l1.62-.1H15c.53,0,1.15,0,1.77-.06l.11,5.63c.09,4.73.17,9.45.3,14.18h0c-.47,0-1,0-1.49.08s-1,.07-1.48.07H14c-.5,0-1.06,0-1.64-.05s-1.33,0-2,0c-.47,0-.93,0-1.37,0,0-3.62-.06-7.3-.13-10.85C8.78,34,8.73,31.06,8.71,28.13Zm46.43,0c.39,0,.8,0,1.21,0,.94,0,1.93-.07,2.8-.13l1.61-.1h.64c.52,0,1.14,0,1.76-.06l.11,5.62c.09,4.73.18,9.46.31,14.19h0c-.47,0-1,0-1.49.08s-1,.07-1.47.07h-.22c-.5,0-1.06,0-1.65-.05s-1.32,0-2,0c-.46,0-.92,0-1.37,0,0-3.62-.06-7.3-.12-10.85C55.21,34,55.15,31.06,55.14,28.13ZM18.38,23.7v.22c0,.79,0,1.59-.63,2a5.39,5.39,0,0,1-2.35.37l-1.07,0H9.57c-2.08,0-2.22-.61-2.2-2.4C11,23.8,14.71,23.74,18.38,23.7ZM65,52.12c0,.26,0,.5,0,.71,0,1.62,0,3.24,0,4.86v1.66h-.33c-.89,0-1.8.07-2.68.14s-1.52.12-2.16.12h-.18l-2.13,0c-1.23,0-2.47,0-3.71,0,0-2,0-4.07,0-6.11v-.73c0-.22,0-.45,0-.69-.06-.94-.13-1.92.71-2.36a2.22,2.22,0,0,1,.93-.13l.77,0,.62,0h.07c1,0,2-.08,3-.1a11.57,11.57,0,0,0,1.32-.13,19.38,19.38,0,0,1,2.11-.18,2.73,2.73,0,0,1,1,.15C65.14,49.77,65.06,51.08,65,52.12Zm-.2-28.2c0,.79,0,1.59-.63,2a5.34,5.34,0,0,1-2.34.37l-1.08,0H56c-1.1,0-1.66-.19-1.93-.59a3.84,3.84,0,0,1-.28-2l1.7,0c.95,0,1.9,0,2.84,0,1.68,0,3.35,0,5,0H64.8Z"/><path d="M39.23,5.51a8.67,8.67,0,0,0-3.31-.64c-3,0-6.51,1.54-7.54,5a7.68,7.68,0,0,0,5.41,9.75,11.58,11.58,0,0,0,2.55.28c3.71,0,6.49-1.8,7.44-4.81A7.8,7.8,0,0,0,39.23,5.51ZM34.24,18a6,6,0,0,1-4.39-6.77c.31-3.15,3.35-4.59,6-4.59a7.11,7.11,0,0,1,3.43.84,6,6,0,0,1,2.82,7.18c-.77,2.27-2.87,3.58-5.75,3.58A9.77,9.77,0,0,1,34.24,18Z"/><path d="M14.75,14a.89.89,0,0,0-.43.13c-2.39,1.48-4.78,3-7.09,4.59a.85.85,0,0,0-.34,1,.83.83,0,0,0,.77.62.88.88,0,0,0,.45-.14c2.32-1.58,4.7-3.12,7.08-4.58a.82.82,0,0,0,.36-.95A.85.85,0,0,0,14.75,14Z"/><path d="M17.38,12.27a.78.78,0,0,0-.62.27.92.92,0,0,0-.21.58.82.82,0,0,0,.83.86A.81.81,0,0,0,18,13.7a.89.89,0,0,0,.2-.58A.81.81,0,0,0,17.38,12.27Z"/><path d="M39.23,5.51a8.67,8.67,0,0,0-3.31-.64c-3,0-6.51,1.54-7.54,5a7.68,7.68,0,0,0,5.41,9.75,11.58,11.58,0,0,0,2.55.28c3.71,0,6.49-1.8,7.44-4.81A7.8,7.8,0,0,0,39.23,5.51ZM34.24,18a6,6,0,0,1-4.39-6.77c.31-3.15,3.35-4.59,6-4.59a7.11,7.11,0,0,1,3.43.84,6,6,0,0,1,2.82,7.18c-.77,2.27-2.87,3.58-5.75,3.58A9.77,9.77,0,0,1,34.24,18Z"/><path class="cls-1" d="M34.24,18a6,6,0,0,1-4.39-6.77c.31-3.15,3.35-4.59,6-4.59a7.11,7.11,0,0,1,3.43.84,6,6,0,0,1,2.82,7.18c-.77,2.27-2.87,3.58-5.75,3.58A9.77,9.77,0,0,1,34.24,18Z"/><path class="cls-1" d="M55.14,28.13c.39,0,.8,0,1.21,0,.94,0,1.93-.07,2.8-.13l1.61-.1h.64c.52,0,1.14,0,1.76-.06l.11,5.62c.09,4.73.18,9.46.31,14.19h0c-.47,0-1,0-1.49.08s-1,.07-1.47.07h-.22c-.5,0-1.06,0-1.65-.05s-1.32,0-2,0c-.46,0-.92,0-1.37,0,0-3.62-.06-7.3-.12-10.85C55.21,34,55.15,31.06,55.14,28.13Z"/><path class="cls-1" d="M65,52.12c0,.26,0,.5,0,.71,0,1.62,0,3.24,0,4.86v1.66h-.33c-.89,0-1.8.07-2.68.14s-1.52.12-2.16.12h-.18l-2.13,0c-1.23,0-2.47,0-3.71,0,0-2,0-4.07,0-6.11v-.73c0-.22,0-.45,0-.69-.06-.94-.13-1.92.71-2.36a2.22,2.22,0,0,1,.93-.13l.77,0,.62,0h.07c1,0,2-.08,3-.1a11.57,11.57,0,0,0,1.32-.13,19.38,19.38,0,0,1,2.11-.18,2.73,2.73,0,0,1,1,.15C65.14,49.77,65.06,51.08,65,52.12Z"/><path class="cls-1" d="M64.8,23.92c0,.79,0,1.59-.63,2a5.34,5.34,0,0,1-2.34.37l-1.08,0H56c-1.1,0-1.66-.19-1.93-.59a3.84,3.84,0,0,1-.28-2l1.7,0c.95,0,1.9,0,2.84,0,1.68,0,3.35,0,5,0H64.8Z"/><path class="cls-1" d="M30.51,52.1c-.06-.94-.12-1.92.72-2.36a2.2,2.2,0,0,1,.92-.13l.78,0,.61,0h.08c1,0,2-.08,3-.1a11.43,11.43,0,0,0,1.31-.13A19.6,19.6,0,0,1,40,49.24a2.75,2.75,0,0,1,1,.15c.88.38.8,1.69.73,2.73,0,.26,0,.5,0,.71q0,2.54,0,5.07v1.86c-3.73,0-7.46-.1-11.19-.18,0-2,0-4,0-6v-.81Q30.54,52.46,30.51,52.1Z"/><path class="cls-1" d="M40.36,47.68c-.47,0-1,0-1.49.08s-1,.07-1.48.07h-.21c-.51,0-1.07,0-1.65-.05s-1.32,0-2,0c-.47,0-.93,0-1.37,0,0-3.62-.06-7.29-.12-10.84-.06-2.94-.11-5.88-.13-8.82.4,0,.81,0,1.22,0,.93,0,1.92-.07,2.79-.13l1.62-.1h.64c.52,0,1.14,0,1.76-.06l.11,5.59c.09,4.74.18,9.48.31,14.22Z"/><path class="cls-1" d="M41,25.9a5.39,5.39,0,0,1-2.35.37l-1.07,0H32.78A2.52,2.52,0,0,1,31,25.79c-.37-.38-.4-1.07-.39-2.21,2.92,0,5.83,0,8.75,0h2.27v.38C41.59,24.71,41.59,25.51,41,25.9Z"/><path class="cls-1" d="M7.3,52.1c-.06-.94-.12-1.92.71-2.36a2.25,2.25,0,0,1,.93-.13l.77,0,.62,0h.08c1,0,2-.08,3-.1a11.36,11.36,0,0,0,1.32-.13,19.38,19.38,0,0,1,2.11-.18,2.66,2.66,0,0,1,1,.15c.89.38.81,1.69.74,2.73,0,.26,0,.5,0,.71q0,2.43,0,4.86v1.7l-1.77,0c-.89,0-1.87,0-2.88-.09-1.18-.06-2.42-.11-3.63-.11a27.73,27.73,0,0,0-2.92.14c0-2.09,0-4.17,0-6.26v-.26Q7.33,52.46,7.3,52.1Z"/><path class="cls-1" d="M8.71,28.13c.39,0,.8,0,1.22,0,.93,0,1.92-.07,2.79-.13l1.62-.1H15c.53,0,1.15,0,1.77-.06l.11,5.63c.09,4.73.17,9.45.3,14.18h0c-.47,0-1,0-1.49.08s-1,.07-1.48.07H14c-.5,0-1.06,0-1.64-.05s-1.33,0-2,0c-.47,0-.93,0-1.37,0,0-3.62-.06-7.3-.13-10.85C8.78,34,8.73,31.06,8.71,28.13Z"/><path class="cls-1" d="M18.38,23.7v.22c0,.79,0,1.59-.63,2a5.39,5.39,0,0,1-2.35.37l-1.07,0H9.57c-2.08,0-2.22-.61-2.2-2.4C11,23.8,14.71,23.74,18.38,23.7Z"/></g></g></svg>