<svg xmlns="http://www.w3.org/2000/svg" viewBox="0 0 55.43 77.98"><defs><style>.cls-1{fill:#fbc041;}.cls-2{fill:#fff;}</style></defs><g id="Layer_2" data-name="Layer 2"><g id="Layer_1-2" data-name="Layer 1"><path d="M35.33,78C25.68,77.24,16,76.57,6.38,75.71,1.7,75.29-.27,73,0,68.28c.49-7.53,1.17-15.05,1.9-22.56,1.17-12,2.31-24.11,3.72-36.14C6.52,2.09,8.26.58,15.82.05A68.07,68.07,0,0,1,23.75.4c2.43.11,4.86.23,7.29.28C36.56.79,42.12.55,47.61,1c5.22.46,8,3.78,7.82,9.07-.2,6.06-.85,12.09-1.33,18.13Q52.56,47.49,51,66.71c-.07.85-.15,1.7-.27,2.54-1.1,7.32-2.48,8.49-9.94,8.44H35.35ZM32,75.83v-.29c3.18,0,6.37,0,9.55,0,5.3,0,6.27-.84,7.16-6,.13-.73.22-1.47.28-2.21Q50.6,47.17,52.15,27c.42-5.3,1-10.58,1.28-15.88S52.15,4,47,3.11a23.05,23.05,0,0,0-3.8-.35c-6.37,0-12.75,0-19.12-.08-3.18,0-6.38-.4-9.52-.12C9.45,3,8.29,4,7.67,9.19,6.41,19.72,5.36,30.29,4.41,40.86c-.82,9.09-1.51,18.19-2,27.3-.22,4.09,1.09,5.38,5.13,5.74C15.7,74.63,23.87,75.19,32,75.83Z"/><path class="cls-1" d="M32,75.83c-8.16-.64-16.33-1.2-24.48-1.93-4-.36-5.35-1.65-5.13-5.74.48-9.11,1.17-18.21,2-27.3,1-10.57,2-21.14,3.26-31.67C8.29,4,9.45,3,14.57,2.56c3.14-.28,6.34.1,9.52.12,6.37,0,12.75,0,19.12.08a23.05,23.05,0,0,1,3.8.35c5.14.9,6.7,2.72,6.42,8S52.57,21.71,52.15,27Q50.58,47.17,49,67.34c-.06.74-.15,1.48-.28,2.21-.89,5.15-1.86,6-7.16,6-3.18,0-6.37,0-9.55,0ZM28,59.61v0c2.88,0,5.75,0,8.62,0s6.54.85,8-.57c1.6-1.6,1.06-5.34,1.46-8.14,0-.32.07-.64.1-1C47,39,47.86,28.13,48.55,17.2c.26-4.07-.22-4.23-4.25-4.46-9.55-.52-19.09-1.13-28.63-1.74-2.14-.14-3.4.51-3.67,2.88-.71,6.21-1.57,12.41-2.36,18.62-.93,7.37-1.79,14.76-2.81,22.12-.35,2.55.7,3.84,3,4.31a25.4,25.4,0,0,0,4.4.65C18.84,59.66,23.42,59.61,28,59.61Zm-3.55,4c-2.52,0-4,1.5-4,3.75a3.78,3.78,0,0,0,4.2,3.76c2.48-.23,3.85-1.66,3.79-4.21C28.41,64.21,26.45,63.78,24.44,63.63Zm12.89,7.44c1.2-1.73,2.53-2.87,2.32-3.51A4.66,4.66,0,0,0,37,65.19c-.4-.16-2.06,1.37-2,2C35.1,68.27,36.14,69.24,37.33,71.07ZM11.92,69.55c1.21-1.39,2.36-2.16,2.55-3.13.12-.57-1.48-2.15-2-2a4.17,4.17,0,0,0-2.36,2.22C9.94,67.09,11,68.11,11.92,69.55Z"/><path d="M28,59.61c-4.57,0-9.15,0-13.72,0a25.4,25.4,0,0,1-4.4-.65c-2.34-.47-3.39-1.76-3-4.31,1-7.36,1.88-14.75,2.81-22.12.79-6.21,1.65-12.41,2.36-18.62.27-2.37,1.53-3,3.67-2.88,9.54.61,19.08,1.22,28.63,1.74,4,.23,4.51.39,4.25,4.46C47.86,28.13,47,39,46.14,50c0,.32-.06.64-.1,1-.4,2.8.14,6.54-1.46,8.14-1.43,1.42-5.22.52-8,.57s-5.74,0-8.62,0Zm.58-1.34,0-.58c4.15,0,8.29,0,12.44,0,2.12,0,2.94-.87,3.06-3,.45-7.85,1.07-15.7,1.63-23.54.32-4.35.71-8.69.91-13,.07-1.46.5-3.45-2-3.55-9.13-.36-18.27-.67-27.4-1.09-2.59-.12-3.45,1-3.74,3.47-1.36,11.93-2.81,23.86-4.42,35.77-.41,3.09.73,4.38,3.61,4.57C18,57.61,23.27,57.93,28.57,58.27Z"/><path d="M24.44,63.63c2,.15,4,.58,4,3.3.06,2.55-1.31,4-3.79,4.21a3.78,3.78,0,0,1-4.2-3.76C20.44,65.13,21.92,63.68,24.44,63.63Z"/><path d="M37.33,71.07c-1.19-1.83-2.23-2.8-2.35-3.86-.06-.65,1.6-2.18,2-2a4.66,4.66,0,0,1,2.67,2.37C39.86,68.2,38.53,69.34,37.33,71.07Z"/><path d="M11.92,69.55c-.92-1.44-2-2.46-1.77-2.93a4.17,4.17,0,0,1,2.36-2.22c.48-.13,2.08,1.45,2,2C14.28,67.39,13.13,68.16,11.92,69.55Z"/><path class="cls-2" d="M28.57,58.27c-5.3-.34-10.6-.66-15.9-1-2.88-.19-4-1.48-3.61-4.57,1.61-11.91,3.06-23.84,4.42-35.77.29-2.47,1.15-3.59,3.74-3.47,9.13.42,18.27.73,27.4,1.09,2.51.1,2.08,2.09,2,3.55-.2,4.35-.59,8.69-.91,13-.56,7.84-1.18,15.69-1.63,23.54-.12,2.16-.94,3-3.06,3-4.15-.05-8.29,0-12.44,0ZM14.07,46.73l.88.46a4.57,4.57,0,0,0,1-.63Q27.86,34.11,39.72,21.63c.07-.07.19-.14.21-.23.09-.73.17-1.47.25-2.2-.72.22-1.63.24-2.13.7-1.26,1.13-2.31,2.49-3.47,3.72-6.4,6.82-12.82,13.61-19.18,20.47A10.54,10.54,0,0,0,14.07,46.73Zm9.5.37.65.79A5.37,5.37,0,0,0,26,47.06c5.11-5.38,10.21-10.79,15.22-16.26.54-.59.55-1.65.81-2.48l-1-.55C35.21,34.2,28.91,40.22,23.57,47.1ZM16.13,34.3l-1-.27a7,7,0,0,0,2.38-.71c8.25-6.54,13.4-12.52,12.94-15ZM32.25,48.58c3.12.12,8.27-5.19,8.14-8Z"/><path d="M14.07,46.73a10.54,10.54,0,0,1,1.33-2.64c6.36-6.86,12.78-13.65,19.18-20.47,1.16-1.23,2.21-2.59,3.47-3.72.5-.46,1.41-.48,2.13-.7-.08.73-.16,1.47-.25,2.2,0,.09-.14.16-.21.23Q27.85,34.11,16,46.56a4.57,4.57,0,0,1-1,.63Z"/><path d="M23.57,47.1c5.34-6.88,11.64-12.9,17.49-19.33l1,.55c-.26.83-.27,1.89-.81,2.48-5,5.47-10.11,10.88-15.22,16.26a5.37,5.37,0,0,1-1.79.83Z"/><path d="M16.13,34.3l14.33-16c.46,2.5-4.69,8.48-12.94,15a7,7,0,0,1-2.38.71Z"/><path d="M32.25,48.58l8.14-8C40.52,43.39,35.37,48.7,32.25,48.58Z"/></g></g></svg>