<svg xmlns="http://www.w3.org/2000/svg" viewBox="0 0 65.58 76.54"><defs><style>.cls-1{fill:#fff;}.cls-2{fill:#fbc041;}</style></defs><g id="Layer_2" data-name="Layer 2"><g id="Layer_1-2" data-name="Layer 1"><path d="M18.4,65.52c-.43-.24-.86-.5-1.31-.74A27.65,27.65,0,0,1,5.77,53.4,24.79,24.79,0,0,1,3,43.43a33.08,33.08,0,0,1,.42-8A34.85,34.85,0,0,1,7.07,25,32.22,32.22,0,0,1,20.64,11.31,27,27,0,0,1,36,8.24a24,24,0,0,1,14.31,6.57,29.49,29.49,0,0,1,8.18,13.62,35.79,35.79,0,0,1,1.2,12.4,44.75,44.75,0,0,1-2.27,12,31.29,31.29,0,0,1-7.09,11.41c-.53.55-1.14,1-1.68,1.51a14.23,14.23,0,0,1,4.15,7,2.51,2.51,0,0,1-1,2.84,2.64,2.64,0,0,1-3,.14,9.09,9.09,0,0,1-3.13-2.81,35.43,35.43,0,0,1-2.26-3.5c-.27-.47-.51-.6-1-.44a5.7,5.7,0,0,1-3.58.1,4.26,4.26,0,0,0-2-.14,32,32,0,0,1-13.93-1.51l-.29-.08A33.14,33.14,0,0,1,19,75a4.07,4.07,0,0,1-.54.64,2.21,2.21,0,0,1-2.34.79,2.5,2.5,0,0,1-1.64-1.89,6.66,6.66,0,0,1,.83-5,24.78,24.78,0,0,1,1.88-3A6.28,6.28,0,0,1,18.4,65.52ZM58,37.53a29,29,0,0,0-5.61-17.25,23.94,23.94,0,0,0-15.18-10,20.92,20.92,0,0,0-6.65-.18,24.59,24.59,0,0,0-11,4.36c-7.65,5.38-13,12.34-14.82,21.73a22.54,22.54,0,0,0,0,8.31,26.28,26.28,0,0,0,3.38,8.8A26.8,26.8,0,0,0,21.55,64.84,39.23,39.23,0,0,0,37,67.47a.72.72,0,0,0,.49-.15c.4-.47.79-.31,1.28-.15a8.62,8.62,0,0,0,2.46.61,7.92,7.92,0,0,0,4.93-2,27.4,27.4,0,0,0,6.46-7.28c1.87-2.94,3.65-5.91,4.27-9.44A66.54,66.54,0,0,0,58,37.53Z"/><path d="M0,11c.12-2.7.48-4.82,1.84-6.59A9.44,9.44,0,0,1,8.8.81a9.29,9.29,0,0,1,7.45,2.32,7.31,7.31,0,0,1,2,3.38,1.09,1.09,0,0,1-.39,1.15c-1.8,1.88-4.21,2.91-6.22,4.49a23.65,23.65,0,0,0-5.32,5.34,1.14,1.14,0,0,1-.77.5c-.23,0-.41-.44-.63-.66a1,1,0,0,0-.5-.31A4.36,4.36,0,0,1,.56,13.73,19.15,19.15,0,0,1,0,11ZM16.37,6.4a16,16,0,0,0-1.24-1.69A7.11,7.11,0,0,0,10.4,2.58,7.43,7.43,0,0,0,3.8,4.9a7.86,7.86,0,0,0-1.95,6.41A4.74,4.74,0,0,0,5,15.43c.35.13.52,0,.73-.26A8,8,0,0,1,7,13.62c1.87-1.55,3.76-3,5.67-4.54C13.87,8.18,15.08,7.34,16.37,6.4Z"/><path d="M65.57,8.84a7.83,7.83,0,0,1-3.59,6,1.5,1.5,0,0,1-2.15-.08q-4.06-3.17-8.16-6.31A21,21,0,0,0,49.3,6.81,3.25,3.25,0,0,1,48,5a1.68,1.68,0,0,1,.59-2,13.41,13.41,0,0,1,2.86-1.66A19.12,19.12,0,0,1,57.61,0,7.93,7.93,0,0,1,65,4.8,9.32,9.32,0,0,1,65.57,8.84Zm-8.75-7c-.87.1-1.75.15-2.6.32a14,14,0,0,0-2.57.73c-1,.38-1.89.88-2.11,2.07a.64.64,0,0,0,.45.82c1.08.51,2.15,1,3.18,1.63a47.14,47.14,0,0,1,7.22,5.45.74.74,0,0,0,1.22,0A6.14,6.14,0,0,0,64,8.1,6.72,6.72,0,0,0,56.82,1.79Z"/><path class="cls-1" d="M58,37.53a66.54,66.54,0,0,1-1.18,11.53c-.62,3.53-2.4,6.5-4.27,9.44a27.4,27.4,0,0,1-6.46,7.28,7.92,7.92,0,0,1-4.93,2,8.62,8.62,0,0,1-2.46-.61c-.49-.16-.88-.32-1.28.15a.72.72,0,0,1-.49.15,39.23,39.23,0,0,1-15.41-2.63A26.8,26.8,0,0,1,8.12,53.27a26.28,26.28,0,0,1-3.38-8.8,22.54,22.54,0,0,1,0-8.31c1.78-9.39,7.17-16.35,14.82-21.73a24.59,24.59,0,0,1,11-4.36,20.92,20.92,0,0,1,6.65.18,23.94,23.94,0,0,1,15.18,10A29,29,0,0,1,58,37.53ZM32.31,44.74a4.31,4.31,0,0,0,2.58-1.06A2.89,2.89,0,0,0,35.58,40a1,1,0,0,1,.12-1.35A117.68,117.68,0,0,1,44.06,29a6.46,6.46,0,0,0,1-1.36,1,1,0,0,0-.1-.91,1,1,0,0,0-.85-.17,2.07,2.07,0,0,0-.91.54c-.82.86-1.64,1.74-2.41,2.65-2.2,2.61-4.39,5.24-6.58,7.86-.3.37-.47,1-1.09.35,0,0-.12,0-.17,0a3.07,3.07,0,0,0-2.76.58c-.41.34-.66.29-1.07,0a99.08,99.08,0,0,1-9.52-7.84c-1.62-1.46-3.4-2.75-5.1-4.12-.27-.22-.63-.36-.82,0s0,.56.09.84c0,.11.19.2.29.29,3,2.81,5.88,5.65,8.88,8.41,1.68,1.54,3.46,3,5.23,4.42a1.32,1.32,0,0,1,.61,1.11A3.23,3.23,0,0,0,32.31,44.74ZM52,41.59v0c-.53,0-1.07-.1-1.6-.09a1.7,1.7,0,0,0-.71.23,2.42,2.42,0,0,0-.66.43,1,1,0,0,0-.36.55.77.77,0,0,0,.33.55,1.85,1.85,0,0,0,.68.19,16.09,16.09,0,0,0,5.09,0c.47-.07.89-.21.94-.73s-.37-.7-.76-.86a1.79,1.79,0,0,0-.4-.09Zm-44,3,0-.09c1.28-.09,2.57-.16,3.86-.28.62-.05.93-.38.91-.88s-.34-.79-1-.8l-2.68,0c-.81,0-1.63,0-2.44,0-.47,0-.78.37-.6.71a3.23,3.23,0,0,0,.8,1.11A3.24,3.24,0,0,0,8,44.64Zm25.5,17.11h-.07c0-.48,0-1,0-1.43,0-.63-.39-1.08-.9-1s-.66.56-.69,1,0,1.08-.06,1.61-.13,1.31-.2,2A11.7,11.7,0,0,0,31.47,65c0,.72.26,1.06.81,1.09s.88-.26,1-1C33.35,64,33.44,62.88,33.54,61.75Zm-3.16-43.1a9.15,9.15,0,0,1,.3,1c.07.39.24.63.65.63a.64.64,0,0,0,.65-.65c.19-1.63.38-3.27.53-4.91a.75.75,0,0,0-.74-.9.82.82,0,0,0-.95.77C30.66,15.89,30.54,17.16,30.38,18.65Z"/><path class="cls-2" d="M16.37,6.4c-1.29.94-2.5,1.78-3.66,2.68-1.91,1.49-3.8,3-5.67,4.54a8,8,0,0,0-1.28,1.55c-.21.29-.38.39-.73.26a4.74,4.74,0,0,1-3.18-4.12A7.86,7.86,0,0,1,3.8,4.9a7.43,7.43,0,0,1,6.6-2.32,7.11,7.11,0,0,1,4.73,2.13A16,16,0,0,1,16.37,6.4Z"/><path class="cls-2" d="M56.82,1.79A6.72,6.72,0,0,1,64,8.1a6.14,6.14,0,0,1-2.35,4.69.74.74,0,0,1-1.22,0,47.14,47.14,0,0,0-7.22-5.45c-1-.6-2.1-1.12-3.18-1.63a.64.64,0,0,1-.45-.82c.22-1.19,1.15-1.69,2.11-2.07a14,14,0,0,1,2.57-.73C55.07,1.94,56,1.89,56.82,1.79Z"/><path d="M32.31,44.74a3.23,3.23,0,0,1-3.49-3.15,1.32,1.32,0,0,0-.61-1.11C26.44,39,24.66,37.6,23,36.06c-3-2.76-5.93-5.6-8.88-8.41-.1-.09-.26-.18-.29-.29-.07-.28-.2-.63-.09-.84s.55-.22.82,0c1.7,1.37,3.48,2.66,5.1,4.12a99.08,99.08,0,0,0,9.52,7.84c.41.28.66.33,1.07,0A3.07,3.07,0,0,1,33,37.89s.13,0,.17,0c.62.7.79,0,1.09-.35,2.19-2.62,4.38-5.25,6.58-7.86.77-.91,1.59-1.79,2.41-2.65a2.07,2.07,0,0,1,.91-.54,1,1,0,0,1,.85.17,1,1,0,0,1,.1.91,6.46,6.46,0,0,1-1,1.36,117.68,117.68,0,0,0-8.36,9.63A1,1,0,0,0,35.58,40a2.89,2.89,0,0,1-.69,3.72A4.31,4.31,0,0,1,32.31,44.74Z"/><path d="M52,41.59l2.55.24a1.79,1.79,0,0,1,.4.09c.39.16.82.36.76.86s-.47.66-.94.73a16.09,16.09,0,0,1-5.09,0,1.85,1.85,0,0,1-.68-.19.77.77,0,0,1-.33-.55,1,1,0,0,1,.36-.55,2.42,2.42,0,0,1,.66-.43,1.7,1.7,0,0,1,.71-.23c.53,0,1.07,0,1.6.09Z"/><path d="M8,44.64a3.24,3.24,0,0,1-1.12-.29,3.23,3.23,0,0,1-.8-1.11c-.18-.34.13-.71.6-.71.81,0,1.63,0,2.44,0l2.68,0c.65,0,1,.29,1,.8s-.29.83-.91.88c-1.29.12-2.58.19-3.86.28Z"/><path d="M33.54,61.75c-.1,1.13-.19,2.26-.3,3.39-.08.71-.4,1-1,1s-.82-.37-.81-1.09a11.7,11.7,0,0,1,.15-1.17c.07-.65.15-1.3.2-2s0-1.07.06-1.61.06-1,.69-1,.88.42.9,1c0,.47,0,1,0,1.43Z"/><path d="M30.38,18.65c.16-1.49.28-2.76.44-4a.82.82,0,0,1,.95-.77.75.75,0,0,1,.74.9c-.15,1.64-.34,3.28-.53,4.91a.64.64,0,0,1-.65.65c-.41,0-.58-.24-.65-.63A9.15,9.15,0,0,0,30.38,18.65Z"/></g></g></svg>