<svg xmlns="http://www.w3.org/2000/svg" viewBox="0 0 68.95 76.94"><defs><style>.cls-1{fill:#fbc041;}.cls-2{fill:#fff;}</style></defs><g id="Layer_2" data-name="Layer 2"><g id="Layer_1-2" data-name="Layer 1"><path class="cls-1" d="M.6,74.39a2.5,2.5,0,0,0,.78,2.18,2.5,2.5,0,0,0,1.33.28c5.73.12,11.49.25,17.14-.64,1.56-.25,3.1-.57,4.66-.7a12.45,12.45,0,0,0,2.72-.36,1.14,1.14,0,0,0,.73-.48,1.3,1.3,0,0,0,.1-.76,81,81,0,0,1,.49-15.25,1.59,1.59,0,0,0-.16-1.18,1.44,1.44,0,0,0-.4-.33l-1.93-1.27a4.28,4.28,0,0,1-1.26-1.09,4.28,4.28,0,0,1-.37-2.86c-1.29,1.45-3.46,1.57-5.34,2-1.41.35-1.89,1.14-3.13,1.89-2.54,1.55-5,1.61-6.68,3a19.73,19.73,0,0,0-4,5.31L2.6,68.45a15,15,0,0,0-1.22,2.27,10.8,10.8,0,0,0-.56,4.49"/><path class="cls-1" d="M68.17,74.39a2.54,2.54,0,0,1-.79,2.18,2.5,2.5,0,0,1-1.33.28c-5.74.12-11.51.25-17.17-.64-1.55-.25-3.1-.57-4.66-.7a12.46,12.46,0,0,1-2.73-.36,1.19,1.19,0,0,1-.73-.48,1.39,1.39,0,0,1-.1-.76,81,81,0,0,0-.49-15.25,1.19,1.19,0,0,1,.56-1.51l1.94-1.27a4.37,4.37,0,0,0,1.25-1.09,4.28,4.28,0,0,0,.37-2.86c1.3,1.45,3.47,1.57,5.36,2,1.4.35,1.89,1.14,3.13,1.89,2.55,1.55,5,1.61,6.69,3a19.76,19.76,0,0,1,4,5.31l2.65,4.29a15,15,0,0,1,1.22,2.27,10.64,10.64,0,0,1,.56,4.49"/><path d="M31.54,55.87a5.87,5.87,0,0,0-2.22,5c0,4.51-.24,9-.44,13.51,0,.47-.43.93-.66,1.39a4.14,4.14,0,0,1-.56-1.45c.09-4.88.29-9.76.35-14.64a2.64,2.64,0,0,0-.86-1.82c-2.44-2.06-2.93-2.88-2.74-5.33-5.36,2.08-10.81,4-15.09,7.78-2.41,2.1-3.9,5.31-5.56,8.17a53.65,53.65,0,0,0-2.41,5.78,8.18,8.18,0,0,1-.82,1.31l-.38-.13c0-.33-.22-.71-.12-1,1.66-4.83,3.48-9.61,6.87-13.53a14.87,14.87,0,0,1,4.46-3.6C16.1,55,21,52.92,25.79,50.64a5.19,5.19,0,0,0,2.53-2.15c1.13-2.61,1-2.63-1.31-4.3a18.32,18.32,0,0,1-6.45-9.58c-.31-1-.62-1.59-1.87-1.74-1.86-.23-2.57-1.82-2.87-3.47a5.37,5.37,0,0,1,2.67-6.08,15.67,15.67,0,0,1-1.43-11.27C18.59,5.73,23.12,2.36,29,.69c7.6-2.14,16.16.85,20,6.82,3,4.66,3.15,9.67,1.67,14.85-.09.3-.19.6-.27.89C53,25,53.92,27.29,53.12,30c-.62,2.1-1.85,2.92-4.39,3a57.46,57.46,0,0,1-3.16,6.33A25.48,25.48,0,0,1,41.44,44c-1.53,1.42-2,3.08-.65,4.76a6.84,6.84,0,0,0,2.43,1.72c4.65,2.2,9.35,4.29,14,6.48a14.91,14.91,0,0,1,7,6.83c1.7,3.33,3.13,6.8,4.63,10.24.15.37-.09.91-.14,1.37-.33-.34-.79-.62-1-1-1.71-3.57-3.27-7.22-5.1-10.73a12.22,12.22,0,0,0-5.5-5.28c-4.25-2.14-8.52-4.23-12.93-6.2,1.1,2.92-.92,4.22-2.61,5.56a2.27,2.27,0,0,0-1.07,2.08c.18,4.61.27,9.22.39,13.84a3.1,3.1,0,0,1,0,1,8.13,8.13,0,0,1-.59,1.13c-.22-.36-.6-.71-.63-1.08q-.26-4.1-.39-8.19c-.07-2.2-.14-4.4-.06-6.6.06-1.73-.77-2.9-2.11-4.22C36.66,59,36.19,62,35.68,65c-.22,1.38-.47,2.75-.79,4.11a4.17,4.17,0,0,1-.73,1.11c-.29-.39-.78-.75-.84-1.17-.51-3.5-1-7-1.42-10.52C31.79,57.72,31.68,56.89,31.54,55.87ZM20.81,31.7a11.27,11.27,0,0,0,.51,1.55c1.25,2.53,2.2,5.3,3.87,7.52,4.45,5.92,12.06,6.19,17.2.88a22.24,22.24,0,0,0,4.93-8.75c.17-.53.39-1,.63-1.67,1.37.75,2.51.92,3.45-.33a4.83,4.83,0,0,0-.06-5.43c-.9-1.15-1.61-1.1-2.55,0a20.72,20.72,0,0,1-2.07,1.9l-.5-.22c.58-5.69-1.66-10.06-6.18-13.61-3.93,5.11-8.24,4.66-12.4.67-4.51,3.34-5.12,8.15-5.66,13.06-1-.74-1.53-1.52-2.25-2.11A1.62,1.62,0,0,0,18.27,25c-1.34.8-1.83,3.21-1.13,5C17.76,31.5,18.65,32,20.81,31.7ZM34,65.32h.42c.51-3.32,1.09-6.63,1.49-10,.19-1.56.6-2.57,2.35-2.82,1.19-.17,2.18-.95,1.8-2.36a41.18,41.18,0,0,0-1.44-4H30.24a18.07,18.07,0,0,1-1.09,3.59c-.76,1.41-.26,2.41,1,2.58,2.56.34,2.76,2,2.79,4,0,.7.13,1.39.21,2.08Q33.55,61.87,34,65.32Zm7.53-13.39L38.05,54.3c.4.57.81,1.18,1.24,1.77.25.34.53.65.78,1C43.43,55.61,43.86,53.84,41.52,51.93ZM30.77,54.29l-3.7-2.51c-.44.75-1.53,1.86-1.3,2.35a15.42,15.42,0,0,0,2.78,3.27Z"/><path class="cls-2" d="M20.81,31.7c-2.16.26-3-.2-3.67-1.75-.7-1.76-.21-4.17,1.13-5a1.62,1.62,0,0,1,1.46.17c.72.59,1.29,1.37,2.25,2.11.54-4.91,1.15-9.72,5.66-13.06,4.16,4,8.47,4.44,12.4-.67,4.52,3.55,6.76,7.92,6.18,13.61l.5.22a20.72,20.72,0,0,0,2.07-1.9c.94-1.09,1.65-1.14,2.55,0a4.83,4.83,0,0,1,.06,5.43c-.94,1.25-2.08,1.08-3.45.33-.24.63-.46,1.14-.63,1.67a22.24,22.24,0,0,1-4.93,8.75c-5.14,5.31-12.75,5-17.2-.88-1.67-2.22-2.62-5-3.87-7.52A11.27,11.27,0,0,1,20.81,31.7Zm12.87-4.39-.78-.26c-.66,1.46-1.37,2.9-1.94,4.39-.08.2.45.85.79.93a7.49,7.49,0,0,0,2.22.11c.23,0,.44-.33.66-.51-.2-.2-.38-.5-.62-.57a9,9,0,0,0-1.46-.17ZM41.21,25h-.05a8.19,8.19,0,0,0,0-1.92,1.48,1.48,0,0,0-.95-.8c-.16,0-.71.52-.72.81A28.94,28.94,0,0,0,39.59,27c0,.27.59.67.88.66s.64-.5.71-.83A8.61,8.61,0,0,0,41.21,25Zm-2.7,10L38,34.55c-2,2.14-4.66.54-7,1.24.78,1.08,4.91,1.46,6.46.63C37.9,36.16,38.15,35.48,38.51,35ZM27,24.9h.1a8.09,8.09,0,0,0,0,1.91c.09.33.6.56.92.84.24-.3.68-.59.69-.9a26.38,26.38,0,0,0-.12-3.67c0-.3-.49-.56-.75-.83-.29.3-.75.55-.84.9A7.29,7.29,0,0,0,27,24.9Z"/><path class="cls-2" d="M34,65.32q-.45-3.45-.88-6.92c-.08-.69-.19-1.38-.21-2.08,0-2-.23-3.63-2.79-4-1.22-.17-1.72-1.17-1-2.58a18.07,18.07,0,0,0,1.09-3.59h8.37a41.18,41.18,0,0,1,1.44,4c.38,1.41-.61,2.19-1.8,2.36-1.75.25-2.16,1.26-2.35,2.82-.4,3.32-1,6.63-1.49,10Z"/><path class="cls-2" d="M41.52,51.93c2.34,1.91,1.91,3.68-1.45,5.09-.25-.3-.53-.61-.78-1-.43-.59-.84-1.2-1.24-1.77Z"/><path class="cls-2" d="M30.77,54.29,28.55,57.4a15.42,15.42,0,0,1-2.78-3.27c-.23-.49.86-1.6,1.3-2.35Z"/><path d="M33.68,27.31l-1.13,3.92A9,9,0,0,1,34,31.4c.24.07.42.37.62.57-.22.18-.43.5-.66.51a7.49,7.49,0,0,1-2.22-.11c-.34-.08-.87-.73-.79-.93.57-1.49,1.28-2.93,1.94-4.39Z"/><path d="M41.21,25a8.61,8.61,0,0,1,0,1.76c-.07.33-.45.81-.71.83s-.85-.39-.88-.66a28.94,28.94,0,0,1-.14-3.84c0-.29.56-.85.72-.81a1.48,1.48,0,0,1,.95.8,8.19,8.19,0,0,1,0,1.92Z"/><path d="M38.51,35c-.36.48-.61,1.16-1.09,1.42-1.55.83-5.68.45-6.46-.63,2.34-.7,5,.9,7-1.24Z"/><path d="M27,24.9a7.29,7.29,0,0,1,0-1.75c.09-.35.55-.6.84-.9.26.27.72.53.75.83a26.38,26.38,0,0,1,.12,3.67c0,.31-.45.6-.69.9-.32-.28-.83-.51-.92-.84a8.09,8.09,0,0,1,0-1.91Z"/></g></g></svg>